<?xml version="1.0" encoding="UTF-8" standalone="no"?>
<svg
   xmlns:dc="http://purl.org/dc/elements/1.1/"
   xmlns:cc="http://creativecommons.org/ns#"
   xmlns:rdf="http://www.w3.org/1999/02/22-rdf-syntax-ns#"
   xmlns:svg="http://www.w3.org/2000/svg"
   xmlns="http://www.w3.org/2000/svg"
   xmlns:sodipodi="http://sodipodi.sourceforge.net/DTD/sodipodi-0.dtd"
   xmlns:inkscape="http://www.inkscape.org/namespaces/inkscape"
   width="300"
   height="300"
   viewBox="0 0 79.375 79.375"
   version="1.1"
   id="svg8"
   inkscape:version="1.0.2 (e86c870879, 2021-01-15, custom)"
   sodipodi:docname="icon_sq_lg.svg"
   inkscape:export-filename="D:\Dev\Dektiv\dektivcom\dektiv_logo\icon_sq_lg.png"
   inkscape:export-xdpi="95.400002"
   inkscape:export-ydpi="95.400002">
  <defs
     id="defs2" />
  <sodipodi:namedview
     id="base"
     pagecolor="#ffffff"
     bordercolor="#666666"
     borderopacity="1.0"
     inkscape:pageopacity="0.0"
     inkscape:pageshadow="2"
     inkscape:zoom="1"
     inkscape:cx="360.23332"
     inkscape:cy="162.44575"
     inkscape:document-units="px"
     inkscape:current-layer="layer1"
     inkscape:document-rotation="0"
     showgrid="false"
     units="px"
     inkscape:pagecheckerboard="true"
     fit-margin-top="0"
     fit-margin-left="0"
     fit-margin-right="0"
     fit-margin-bottom="0"
     inkscape:window-width="1920"
     inkscape:window-height="1017"
     inkscape:window-x="-8"
     inkscape:window-y="-8"
     inkscape:window-maximized="1" />
  <metadata
     id="metadata5">
    <rdf:RDF>
      <cc:Work
         rdf:about="">
        <dc:format>image/svg+xml</dc:format>
        <dc:type
           rdf:resource="http://purl.org/dc/dcmitype/StillImage" />
        <dc:title></dc:title>
      </cc:Work>
    </rdf:RDF>
  </metadata>
  <g
     inkscape:label="Layer 1"
     inkscape:groupmode="layer"
     id="layer1"
     transform="translate(-2.3151044,-2.0505219)">
    <rect
       style="opacity:1;fill:#0eb1d2;fill-opacity:1;stroke:#0eb1d2;stroke-width:1.60603;stroke-linecap:round;stroke-opacity:1"
       id="rect3247"
       width="77.768974"
       height="77.768967"
       x="3.1181192"
       y="2.8535368" />
    <g
       id="g1070"
       transform="matrix(0.10267516,0,0,0.10775621,12.949697,11.401878)"
       style="opacity:1;fill:#ffffff;fill-opacity:1;stroke:#ffffff;stroke-opacity:1">
      <path
         d="m 370.658,259.009 c -68.108,0 -123.538,-55.419 -123.538,-123.538 0,-68.119 55.43,-123.538 123.538,-123.538 68.108,0 123.538,55.419 123.538,123.538 0,68.119 -55.43,123.538 -123.538,123.538 z m 0,-224.615 c -55.737,0 -101.077,45.34 -101.077,101.077 0,55.737 45.34,101.077 101.077,101.077 55.737,0 101.077,-45.34 101.077,-101.077 0,-55.737 -45.34,-101.077 -101.077,-101.077 z"
         id="path1062"
         style="fill:#ffffff;fill-opacity:1;stroke:#ffffff;stroke-opacity:1" />
      <path
         d="m 527.89,113.009 c -6.244,0 -11.231,5.054 -11.231,11.231 0,6.199 4.987,11.231 11.231,11.231 6.177,0 11.231,-5.031 11.231,-11.231 0,-6.2 -5.054,-11.231 -11.231,-11.231 z"
         id="path1064"
         style="fill:#ffffff;fill-opacity:1;stroke:#ffffff;stroke-opacity:1" />
      <path
         d="m 527.889,527.188 c -6.208,0 -11.231,-5.023 -11.231,-11.231 V 156.562 c 0,-6.208 5.023,-11.231 11.231,-11.231 6.208,0 11.231,5.023 11.231,11.231 v 359.396 c -10e-4,6.207 -5.024,11.23 -11.231,11.23 z"
         id="path1066"
         style="fill:#ffffff;fill-opacity:1;stroke:#ffffff;stroke-opacity:1" />
      <path
         d="m 113.6,525.28 c -3.543,0 -7.085,-0.132 -10.628,-0.417 C 57.501,521.266 20.332,494.264 0.974,450.788 -1.395,445.48 0.689,439.25 5.767,436.421 c 5.056,-2.852 11.483,-1.316 14.751,3.488 8.61,12.678 22.889,20.246 38.189,20.246 25.5,0 46.25,-20.773 46.25,-46.283 0,-29.349 15.497,-52.929 41.457,-63.063 23.767,-9.3 51.186,-5.374 70.379,9.147 19.248,-14.521 46.722,-18.404 70.423,-9.169 25.927,10.156 41.413,33.736 41.413,63.085 0,25.511 20.751,46.283 46.261,46.283 15.289,0 29.569,-7.568 38.167,-20.246 3.29,-4.826 9.673,-6.317 14.762,-3.488 5.089,2.83 7.173,9.059 4.804,14.367 -19.391,43.497 -56.593,70.499 -102.064,74.075 -43.486,3.422 -87.06,-14.411 -113.788,-45.12 -24.555,28.23 -63.49,45.537 -103.171,45.537 z m 103.172,-75.347 c 3.806,0 7.348,1.93 9.41,5.111 20.213,31.082 62.263,50.889 102.601,47.424 20.115,-1.579 37.948,-8.511 52.644,-20.158 -39.681,3.685 -75.259,-28.34 -75.259,-68.438 0,-27.441 -17,-38.189 -27.134,-42.159 -18.689,-7.261 -41.359,-2.698 -53.993,10.968 -2.128,2.281 -5.111,3.597 -8.248,3.597 v 0 c -3.137,0 -6.131,-1.316 -8.259,-3.619 -12.569,-13.6 -35.228,-18.206 -53.938,-10.946 -10.156,3.97 -27.178,14.718 -27.178,42.159 0,40.119 -35.688,71.991 -75.281,68.438 14.697,11.648 32.508,18.579 52.6,20.158 40.108,3.334 82.399,-16.298 102.623,-47.424 2.064,-3.181 5.606,-5.111 9.412,-5.111 z M 370.658,214.086 c -6.208,0 -11.231,-5.023 -11.231,-11.231 0,-6.208 5.023,-11.231 11.231,-11.231 30.972,0 56.154,-25.192 56.154,-56.154 0,-6.208 5.023,-11.231 11.231,-11.231 6.208,0 11.231,5.023 11.231,11.231 -10e-4,43.345 -35.272,78.616 -78.616,78.616 z"
         id="path1068"
         style="fill:#ffffff;fill-opacity:1;stroke:#ffffff;stroke-opacity:1" />
    </g>
    <g
       id="g1074"
       transform="matrix(0.04619184,0,0,0.04619184,19.975176,14.458094)" />
    <g
       id="g1076"
       transform="matrix(0.04619184,0,0,0.04619184,19.975176,14.458094)" />
    <g
       id="g1078"
       transform="matrix(0.04619184,0,0,0.04619184,19.975176,14.458094)" />
    <g
       id="g1080"
       transform="matrix(0.04619184,0,0,0.04619184,19.975176,14.458094)" />
    <g
       id="g1082"
       transform="matrix(0.04619184,0,0,0.04619184,19.975176,14.458094)" />
    <g
       id="g1084"
       transform="matrix(0.04619184,0,0,0.04619184,19.975176,14.458094)" />
    <g
       id="g1086"
       transform="matrix(0.04619184,0,0,0.04619184,19.975176,14.458094)" />
    <g
       id="g1088"
       transform="matrix(0.04619184,0,0,0.04619184,19.975176,14.458094)" />
    <g
       id="g1090"
       transform="matrix(0.04619184,0,0,0.04619184,19.975176,14.458094)" />
    <g
       id="g1092"
       transform="matrix(0.04619184,0,0,0.04619184,19.975176,14.458094)" />
    <g
       id="g1094"
       transform="matrix(0.04619184,0,0,0.04619184,19.975176,14.458094)" />
    <g
       id="g1096"
       transform="matrix(0.04619184,0,0,0.04619184,19.975176,14.458094)" />
    <g
       id="g1098"
       transform="matrix(0.04619184,0,0,0.04619184,19.975176,14.458094)" />
    <g
       id="g1100"
       transform="matrix(0.04619184,0,0,0.04619184,19.975176,14.458094)" />
    <g
       id="g1102"
       transform="matrix(0.04619184,0,0,0.04619184,19.975176,14.458094)" />
  </g>
</svg>
